<mxfile host="65bd71144e" pages="3">
    <diagram id="qJ5WpqcXAYGiYcH5BDwA" name="Work Flow">
        <mxGraphModel dx="1881" dy="326" grid="1" gridSize="10" guides="1" tooltips="1" connect="1" arrows="1" fold="1" page="1" pageScale="1" pageWidth="850" pageHeight="1100" math="0" shadow="0">
            <root>
                <mxCell id="vPlLT5pN4zHW__-pL-Tc-0"/>
                <mxCell id="vPlLT5pN4zHW__-pL-Tc-1" parent="vPlLT5pN4zHW__-pL-Tc-0"/>
                <mxCell id="9ssPm39pstUoPg-3wsf7-7" style="edgeStyle=orthogonalEdgeStyle;orthogonalLoop=1;jettySize=auto;html=1;entryX=0;entryY=0.5;entryDx=0;entryDy=0;curved=1;" parent="vPlLT5pN4zHW__-pL-Tc-1" source="9JlnYq2Dand_yF6pgm6V-5" target="9ssPm39pstUoPg-3wsf7-4" edge="1">
                    <mxGeometry relative="1" as="geometry"/>
                </mxCell>
                <mxCell id="9JlnYq2Dand_yF6pgm6V-5" value="Mysql" style="whiteSpace=wrap;html=1;rounded=1;" parent="vPlLT5pN4zHW__-pL-Tc-1" vertex="1">
                    <mxGeometry x="310" width="85" height="40" as="geometry"/>
                </mxCell>
                <mxCell id="YykdEIOsx3QJ6HFGw7_Z-3" style="edgeStyle=orthogonalEdgeStyle;orthogonalLoop=1;jettySize=auto;html=1;exitX=0.5;exitY=1;exitDx=0;exitDy=0;curved=1;" parent="vPlLT5pN4zHW__-pL-Tc-1" source="9ssPm39pstUoPg-3wsf7-4" target="9ssPm39pstUoPg-3wsf7-20" edge="1">
                    <mxGeometry relative="1" as="geometry"/>
                </mxCell>
                <mxCell id="9ssPm39pstUoPg-3wsf7-4" value="&lt;span&gt;ConnectionInterface&lt;/span&gt;" style="rhombus;whiteSpace=wrap;html=1;rounded=1;" parent="vPlLT5pN4zHW__-pL-Tc-1" vertex="1">
                    <mxGeometry x="372.5" y="100" width="150" height="80" as="geometry"/>
                </mxCell>
                <mxCell id="9ssPm39pstUoPg-3wsf7-8" style="edgeStyle=orthogonalEdgeStyle;orthogonalLoop=1;jettySize=auto;html=1;entryX=1;entryY=0.5;entryDx=0;entryDy=0;curved=1;" parent="vPlLT5pN4zHW__-pL-Tc-1" source="9ssPm39pstUoPg-3wsf7-6" target="9ssPm39pstUoPg-3wsf7-4" edge="1">
                    <mxGeometry relative="1" as="geometry"/>
                </mxCell>
                <mxCell id="9ssPm39pstUoPg-3wsf7-6" value="Sqllite" style="whiteSpace=wrap;html=1;rounded=1;" parent="vPlLT5pN4zHW__-pL-Tc-1" vertex="1">
                    <mxGeometry x="500" width="85" height="40" as="geometry"/>
                </mxCell>
                <mxCell id="9ssPm39pstUoPg-3wsf7-13" value="Executor" style="whiteSpace=wrap;html=1;rounded=1;" parent="vPlLT5pN4zHW__-pL-Tc-1" vertex="1">
                    <mxGeometry x="374.5" y="355" width="145" height="60" as="geometry"/>
                </mxCell>
                <mxCell id="9ssPm39pstUoPg-3wsf7-17" style="edgeStyle=orthogonalEdgeStyle;orthogonalLoop=1;jettySize=auto;html=1;curved=1;" parent="vPlLT5pN4zHW__-pL-Tc-1" source="9ssPm39pstUoPg-3wsf7-16" target="9ssPm39pstUoPg-3wsf7-13" edge="1">
                    <mxGeometry relative="1" as="geometry"/>
                </mxCell>
                <mxCell id="9ssPm39pstUoPg-3wsf7-16" value="&lt;span style=&quot;text-align: left&quot;&gt;ExecutorInterface&lt;/span&gt;" style="rhombus;whiteSpace=wrap;html=1;rounded=1;" parent="vPlLT5pN4zHW__-pL-Tc-1" vertex="1">
                    <mxGeometry y="350" width="210" height="70" as="geometry"/>
                </mxCell>
                <mxCell id="YykdEIOsx3QJ6HFGw7_Z-4" style="edgeStyle=orthogonalEdgeStyle;orthogonalLoop=1;jettySize=auto;html=1;entryX=0.5;entryY=0;entryDx=0;entryDy=0;curved=1;" parent="vPlLT5pN4zHW__-pL-Tc-1" source="9ssPm39pstUoPg-3wsf7-20" target="9ssPm39pstUoPg-3wsf7-13" edge="1">
                    <mxGeometry relative="1" as="geometry"/>
                </mxCell>
                <mxCell id="9ssPm39pstUoPg-3wsf7-20" value="DatabaseFactory" style="whiteSpace=wrap;html=1;rounded=1;" parent="vPlLT5pN4zHW__-pL-Tc-1" vertex="1">
                    <mxGeometry x="374.5" y="235" width="145" height="60" as="geometry"/>
                </mxCell>
                <mxCell id="YykdEIOsx3QJ6HFGw7_Z-1" style="edgeStyle=orthogonalEdgeStyle;orthogonalLoop=1;jettySize=auto;html=1;entryX=0;entryY=0.5;entryDx=0;entryDy=0;curved=1;" parent="vPlLT5pN4zHW__-pL-Tc-1" source="YykdEIOsx3QJ6HFGw7_Z-0" target="9ssPm39pstUoPg-3wsf7-20" edge="1">
                    <mxGeometry relative="1" as="geometry"/>
                </mxCell>
                <mxCell id="YykdEIOsx3QJ6HFGw7_Z-0" value="DatabaseFactory&lt;span style=&quot;text-align: left&quot;&gt;Interface&lt;/span&gt;" style="rhombus;whiteSpace=wrap;html=1;rounded=1;" parent="vPlLT5pN4zHW__-pL-Tc-1" vertex="1">
                    <mxGeometry y="230" width="210" height="70" as="geometry"/>
                </mxCell>
                <mxCell id="YykdEIOsx3QJ6HFGw7_Z-15" style="edgeStyle=orthogonalEdgeStyle;orthogonalLoop=1;jettySize=auto;html=1;curved=1;" parent="vPlLT5pN4zHW__-pL-Tc-1" source="YykdEIOsx3QJ6HFGw7_Z-8" target="YykdEIOsx3QJ6HFGw7_Z-10" edge="1">
                    <mxGeometry relative="1" as="geometry"/>
                </mxCell>
                <mxCell id="YykdEIOsx3QJ6HFGw7_Z-8" value="MigrateController" style="whiteSpace=wrap;html=1;rounded=1;" parent="vPlLT5pN4zHW__-pL-Tc-1" vertex="1">
                    <mxGeometry x="204" y="672.5" width="150" height="60" as="geometry"/>
                </mxCell>
                <mxCell id="YykdEIOsx3QJ6HFGw7_Z-16" style="edgeStyle=orthogonalEdgeStyle;orthogonalLoop=1;jettySize=auto;html=1;entryX=0.5;entryY=1;entryDx=0;entryDy=0;exitX=0.75;exitY=0;exitDx=0;exitDy=0;curved=1;" parent="vPlLT5pN4zHW__-pL-Tc-1" source="YykdEIOsx3QJ6HFGw7_Z-10" target="9ssPm39pstUoPg-3wsf7-13" edge="1">
                    <mxGeometry relative="1" as="geometry"/>
                </mxCell>
                <mxCell id="YykdEIOsx3QJ6HFGw7_Z-10" value="MigrateService" style="whiteSpace=wrap;html=1;rounded=1;" parent="vPlLT5pN4zHW__-pL-Tc-1" vertex="1">
                    <mxGeometry x="204" y="572.5" width="150" height="60" as="geometry"/>
                </mxCell>
                <mxCell id="YykdEIOsx3QJ6HFGw7_Z-17" style="edgeStyle=orthogonalEdgeStyle;orthogonalLoop=1;jettySize=auto;html=1;curved=1;" parent="vPlLT5pN4zHW__-pL-Tc-1" source="YykdEIOsx3QJ6HFGw7_Z-11" target="YykdEIOsx3QJ6HFGw7_Z-10" edge="1">
                    <mxGeometry relative="1" as="geometry"/>
                </mxCell>
                <mxCell id="YykdEIOsx3QJ6HFGw7_Z-11" value="MigrateServiceInterface" style="rhombus;whiteSpace=wrap;html=1;rounded=1;" parent="vPlLT5pN4zHW__-pL-Tc-1" vertex="1">
                    <mxGeometry y="567.5" width="170" height="70" as="geometry"/>
                </mxCell>
                <mxCell id="1" style="edgeStyle=orthogonalEdgeStyle;orthogonalLoop=1;jettySize=auto;html=1;entryX=1;entryY=0.5;entryDx=0;entryDy=0;curved=1;exitX=0.25;exitY=0;exitDx=0;exitDy=0;" edge="1" parent="vPlLT5pN4zHW__-pL-Tc-1" source="YykdEIOsx3QJ6HFGw7_Z-18" target="YykdEIOsx3QJ6HFGw7_Z-19">
                    <mxGeometry relative="1" as="geometry"/>
                </mxCell>
                <mxCell id="2" style="edgeStyle=orthogonalEdgeStyle;curved=1;rounded=0;orthogonalLoop=1;jettySize=auto;html=1;entryX=0.5;entryY=1;entryDx=0;entryDy=0;" edge="1" parent="vPlLT5pN4zHW__-pL-Tc-1" source="YykdEIOsx3QJ6HFGw7_Z-18" target="9ssPm39pstUoPg-3wsf7-13">
                    <mxGeometry relative="1" as="geometry">
                        <mxPoint x="449.5" y="420" as="targetPoint"/>
                    </mxGeometry>
                </mxCell>
                <mxCell id="YykdEIOsx3QJ6HFGw7_Z-18" value="ImportService" style="whiteSpace=wrap;html=1;rounded=1;" parent="vPlLT5pN4zHW__-pL-Tc-1" vertex="1">
                    <mxGeometry x="371.5" y="574.5" width="150" height="60" as="geometry"/>
                </mxCell>
                <mxCell id="YykdEIOsx3QJ6HFGw7_Z-19" value="ImportServiceInterface" style="rhombus;whiteSpace=wrap;html=1;rounded=1;" parent="vPlLT5pN4zHW__-pL-Tc-1" vertex="1">
                    <mxGeometry y="450" width="205" height="70" as="geometry"/>
                </mxCell>
                <mxCell id="HGS7NVP4ZbxqK-kCru6S-1" style="edgeStyle=orthogonalEdgeStyle;orthogonalLoop=1;jettySize=auto;html=1;entryX=0.5;entryY=1;entryDx=0;entryDy=0;curved=1;" parent="vPlLT5pN4zHW__-pL-Tc-1" source="YykdEIOsx3QJ6HFGw7_Z-21" target="YykdEIOsx3QJ6HFGw7_Z-18" edge="1">
                    <mxGeometry relative="1" as="geometry"/>
                </mxCell>
                <mxCell id="YykdEIOsx3QJ6HFGw7_Z-21" value="ImportController" style="whiteSpace=wrap;html=1;rounded=1;" parent="vPlLT5pN4zHW__-pL-Tc-1" vertex="1">
                    <mxGeometry x="371.5" y="672.5" width="150" height="60" as="geometry"/>
                </mxCell>
                <mxCell id="3" style="edgeStyle=orthogonalEdgeStyle;curved=1;rounded=0;orthogonalLoop=1;jettySize=auto;html=1;exitX=0.25;exitY=0;exitDx=0;exitDy=0;" edge="1" parent="vPlLT5pN4zHW__-pL-Tc-1" source="HGS7NVP4ZbxqK-kCru6S-3" target="9ssPm39pstUoPg-3wsf7-13">
                    <mxGeometry relative="1" as="geometry"/>
                </mxCell>
                <mxCell id="HGS7NVP4ZbxqK-kCru6S-3" value="SeedService" style="whiteSpace=wrap;html=1;rounded=1;" parent="vPlLT5pN4zHW__-pL-Tc-1" vertex="1">
                    <mxGeometry x="545" y="572.5" width="150" height="60" as="geometry"/>
                </mxCell>
                <mxCell id="HGS7NVP4ZbxqK-kCru6S-4" style="edgeStyle=orthogonalEdgeStyle;orthogonalLoop=1;jettySize=auto;html=1;curved=1;" parent="vPlLT5pN4zHW__-pL-Tc-1" source="HGS7NVP4ZbxqK-kCru6S-5" target="HGS7NVP4ZbxqK-kCru6S-3" edge="1">
                    <mxGeometry relative="1" as="geometry"/>
                </mxCell>
                <mxCell id="HGS7NVP4ZbxqK-kCru6S-5" value="SeedServiceInterface" style="rhombus;whiteSpace=wrap;html=1;rounded=1;" parent="vPlLT5pN4zHW__-pL-Tc-1" vertex="1">
                    <mxGeometry x="545" y="440" width="205" height="70" as="geometry"/>
                </mxCell>
                <mxCell id="HGS7NVP4ZbxqK-kCru6S-6" style="edgeStyle=orthogonalEdgeStyle;orthogonalLoop=1;jettySize=auto;html=1;entryX=0.5;entryY=1;entryDx=0;entryDy=0;curved=1;" parent="vPlLT5pN4zHW__-pL-Tc-1" source="HGS7NVP4ZbxqK-kCru6S-7" target="HGS7NVP4ZbxqK-kCru6S-3" edge="1">
                    <mxGeometry relative="1" as="geometry"/>
                </mxCell>
                <mxCell id="HGS7NVP4ZbxqK-kCru6S-7" value="SeedController" style="whiteSpace=wrap;html=1;rounded=1;" parent="vPlLT5pN4zHW__-pL-Tc-1" vertex="1">
                    <mxGeometry x="545" y="672.5" width="150" height="60" as="geometry"/>
                </mxCell>
                <mxCell id="7" value="BaseEloquent" style="whiteSpace=wrap;html=1;rounded=1;" vertex="1" parent="vPlLT5pN4zHW__-pL-Tc-1">
                    <mxGeometry x="1245" y="5" width="150" height="60" as="geometry"/>
                </mxCell>
                <mxCell id="9" style="edgeStyle=orthogonalEdgeStyle;curved=1;rounded=0;orthogonalLoop=1;jettySize=auto;html=1;entryX=1;entryY=0.5;entryDx=0;entryDy=0;" edge="1" parent="vPlLT5pN4zHW__-pL-Tc-1" source="8" target="7">
                    <mxGeometry relative="1" as="geometry"/>
                </mxCell>
                <mxCell id="8" value="BaseRepository" style="rhombus;whiteSpace=wrap;html=1;rounded=1;" vertex="1" parent="vPlLT5pN4zHW__-pL-Tc-1">
                    <mxGeometry x="1490" width="205" height="70" as="geometry"/>
                </mxCell>
                <mxCell id="51" style="edgeStyle=orthogonalEdgeStyle;curved=1;rounded=0;orthogonalLoop=1;jettySize=auto;html=1;exitX=0.5;exitY=0;exitDx=0;exitDy=0;entryX=0.5;entryY=1;entryDx=0;entryDy=0;" edge="1" parent="vPlLT5pN4zHW__-pL-Tc-1" source="17" target="8">
                    <mxGeometry relative="1" as="geometry"/>
                </mxCell>
                <mxCell id="17" value="CustomerRepository" style="rhombus;whiteSpace=wrap;html=1;rounded=1;" vertex="1" parent="vPlLT5pN4zHW__-pL-Tc-1">
                    <mxGeometry x="1190" y="200" width="205" height="70" as="geometry"/>
                </mxCell>
                <mxCell id="50" style="edgeStyle=orthogonalEdgeStyle;curved=1;rounded=0;orthogonalLoop=1;jettySize=auto;html=1;entryX=0.5;entryY=1;entryDx=0;entryDy=0;" edge="1" parent="vPlLT5pN4zHW__-pL-Tc-1" source="18" target="8">
                    <mxGeometry relative="1" as="geometry"/>
                </mxCell>
                <mxCell id="18" value="ProductRepository" style="rhombus;whiteSpace=wrap;html=1;rounded=1;" vertex="1" parent="vPlLT5pN4zHW__-pL-Tc-1">
                    <mxGeometry x="1395" y="200" width="205" height="70" as="geometry"/>
                </mxCell>
                <mxCell id="52" style="edgeStyle=orthogonalEdgeStyle;curved=1;rounded=0;orthogonalLoop=1;jettySize=auto;html=1;exitX=0.5;exitY=0;exitDx=0;exitDy=0;entryX=0.5;entryY=1;entryDx=0;entryDy=0;" edge="1" parent="vPlLT5pN4zHW__-pL-Tc-1" source="20" target="8">
                    <mxGeometry relative="1" as="geometry"/>
                </mxCell>
                <mxCell id="20" value="InvoiceRepository" style="rhombus;whiteSpace=wrap;html=1;rounded=1;" vertex="1" parent="vPlLT5pN4zHW__-pL-Tc-1">
                    <mxGeometry x="1600" y="200" width="205" height="70" as="geometry"/>
                </mxCell>
                <mxCell id="24" style="edgeStyle=orthogonalEdgeStyle;curved=1;rounded=0;orthogonalLoop=1;jettySize=auto;html=1;entryX=0.5;entryY=1;entryDx=0;entryDy=0;" edge="1" parent="vPlLT5pN4zHW__-pL-Tc-1" source="21" target="17">
                    <mxGeometry relative="1" as="geometry"/>
                </mxCell>
                <mxCell id="21" value="CustomerEloquent" style="whiteSpace=wrap;html=1;rounded=1;" vertex="1" parent="vPlLT5pN4zHW__-pL-Tc-1">
                    <mxGeometry x="1217.5" y="310" width="150" height="60" as="geometry"/>
                </mxCell>
                <mxCell id="23" style="edgeStyle=orthogonalEdgeStyle;curved=1;rounded=0;orthogonalLoop=1;jettySize=auto;html=1;entryX=0.5;entryY=1;entryDx=0;entryDy=0;" edge="1" parent="vPlLT5pN4zHW__-pL-Tc-1" source="22" target="21">
                    <mxGeometry relative="1" as="geometry"/>
                </mxCell>
                <mxCell id="22" value="Customer" style="whiteSpace=wrap;html=1;rounded=1;" vertex="1" parent="vPlLT5pN4zHW__-pL-Tc-1">
                    <mxGeometry x="1217.5" y="410" width="150" height="60" as="geometry"/>
                </mxCell>
                <mxCell id="28" style="edgeStyle=orthogonalEdgeStyle;curved=1;rounded=0;orthogonalLoop=1;jettySize=auto;html=1;entryX=0.5;entryY=1;entryDx=0;entryDy=0;" edge="1" parent="vPlLT5pN4zHW__-pL-Tc-1" source="25" target="18">
                    <mxGeometry relative="1" as="geometry"/>
                </mxCell>
                <mxCell id="25" value="ProductEloquent" style="whiteSpace=wrap;html=1;rounded=1;" vertex="1" parent="vPlLT5pN4zHW__-pL-Tc-1">
                    <mxGeometry x="1422.5" y="312.5" width="150" height="60" as="geometry"/>
                </mxCell>
                <mxCell id="26" style="edgeStyle=orthogonalEdgeStyle;curved=1;rounded=0;orthogonalLoop=1;jettySize=auto;html=1;entryX=0.5;entryY=1;entryDx=0;entryDy=0;" edge="1" source="27" target="25" parent="vPlLT5pN4zHW__-pL-Tc-1">
                    <mxGeometry relative="1" as="geometry"/>
                </mxCell>
                <mxCell id="27" value="Product" style="whiteSpace=wrap;html=1;rounded=1;" vertex="1" parent="vPlLT5pN4zHW__-pL-Tc-1">
                    <mxGeometry x="1422.5" y="412.5" width="150" height="60" as="geometry"/>
                </mxCell>
                <mxCell id="32" style="edgeStyle=orthogonalEdgeStyle;curved=1;rounded=0;orthogonalLoop=1;jettySize=auto;html=1;" edge="1" parent="vPlLT5pN4zHW__-pL-Tc-1" source="29" target="20">
                    <mxGeometry relative="1" as="geometry"/>
                </mxCell>
                <mxCell id="29" value="InvoiceEloquent" style="whiteSpace=wrap;html=1;rounded=1;" vertex="1" parent="vPlLT5pN4zHW__-pL-Tc-1">
                    <mxGeometry x="1627.5" y="312.5" width="150" height="60" as="geometry"/>
                </mxCell>
                <mxCell id="30" style="edgeStyle=orthogonalEdgeStyle;curved=1;rounded=0;orthogonalLoop=1;jettySize=auto;html=1;entryX=0.5;entryY=1;entryDx=0;entryDy=0;" edge="1" source="31" target="29" parent="vPlLT5pN4zHW__-pL-Tc-1">
                    <mxGeometry relative="1" as="geometry"/>
                </mxCell>
                <mxCell id="31" value="Invoice" style="whiteSpace=wrap;html=1;rounded=1;" vertex="1" parent="vPlLT5pN4zHW__-pL-Tc-1">
                    <mxGeometry x="1627.5" y="412.5" width="150" height="60" as="geometry"/>
                </mxCell>
                <mxCell id="53" style="edgeStyle=orthogonalEdgeStyle;curved=1;rounded=0;orthogonalLoop=1;jettySize=auto;html=1;exitX=0.5;exitY=0;exitDx=0;exitDy=0;entryX=0.5;entryY=1;entryDx=0;entryDy=0;" edge="1" parent="vPlLT5pN4zHW__-pL-Tc-1" source="33" target="8">
                    <mxGeometry relative="1" as="geometry">
                        <mxPoint x="1600" y="80" as="targetPoint"/>
                    </mxGeometry>
                </mxCell>
                <mxCell id="33" value="ProductInvoiceRepository" style="rhombus;whiteSpace=wrap;html=1;rounded=1;" vertex="1" parent="vPlLT5pN4zHW__-pL-Tc-1">
                    <mxGeometry x="1805" y="200" width="205" height="70" as="geometry"/>
                </mxCell>
                <mxCell id="34" style="edgeStyle=orthogonalEdgeStyle;curved=1;rounded=0;orthogonalLoop=1;jettySize=auto;html=1;entryX=0.5;entryY=1;entryDx=0;entryDy=0;" edge="1" source="35" target="33" parent="vPlLT5pN4zHW__-pL-Tc-1">
                    <mxGeometry relative="1" as="geometry"/>
                </mxCell>
                <mxCell id="35" value="ProductInvoice&lt;br&gt;Eloquent" style="whiteSpace=wrap;html=1;rounded=1;" vertex="1" parent="vPlLT5pN4zHW__-pL-Tc-1">
                    <mxGeometry x="1832.5" y="312.5" width="150" height="60" as="geometry"/>
                </mxCell>
                <mxCell id="36" style="edgeStyle=orthogonalEdgeStyle;curved=1;rounded=0;orthogonalLoop=1;jettySize=auto;html=1;entryX=0.5;entryY=1;entryDx=0;entryDy=0;" edge="1" source="37" target="35" parent="vPlLT5pN4zHW__-pL-Tc-1">
                    <mxGeometry relative="1" as="geometry"/>
                </mxCell>
                <mxCell id="37" value="ProductInvoice" style="whiteSpace=wrap;html=1;rounded=1;" vertex="1" parent="vPlLT5pN4zHW__-pL-Tc-1">
                    <mxGeometry x="1832.5" y="412.5" width="150" height="60" as="geometry"/>
                </mxCell>
                <mxCell id="38" value="Class" style="whiteSpace=wrap;html=1;rounded=1;fillColor=#6a00ff;strokeColor=#3700CC;fontColor=#ffffff;" vertex="1" parent="vPlLT5pN4zHW__-pL-Tc-1">
                    <mxGeometry x="2117.5" y="22.5" width="150" height="60" as="geometry"/>
                </mxCell>
                <mxCell id="41" value="Interface" style="rhombus;whiteSpace=wrap;html=1;rounded=1;fillColor=#6a00ff;strokeColor=#3700CC;fontColor=#ffffff;" vertex="1" parent="vPlLT5pN4zHW__-pL-Tc-1">
                    <mxGeometry x="2090" y="102.5" width="205" height="70" as="geometry"/>
                </mxCell>
                <mxCell id="56" value="ExportService" style="whiteSpace=wrap;html=1;rounded=1;" vertex="1" parent="vPlLT5pN4zHW__-pL-Tc-1">
                    <mxGeometry x="740" y="572.5" width="150" height="60" as="geometry"/>
                </mxCell>
                <mxCell id="57" style="edgeStyle=orthogonalEdgeStyle;orthogonalLoop=1;jettySize=auto;html=1;entryX=0.5;entryY=1;entryDx=0;entryDy=0;curved=1;" edge="1" source="58" target="56" parent="vPlLT5pN4zHW__-pL-Tc-1">
                    <mxGeometry relative="1" as="geometry"/>
                </mxCell>
                <mxCell id="58" value="ExportController" style="whiteSpace=wrap;html=1;rounded=1;" vertex="1" parent="vPlLT5pN4zHW__-pL-Tc-1">
                    <mxGeometry x="740" y="672.5" width="150" height="60" as="geometry"/>
                </mxCell>
                <mxCell id="60" style="edgeStyle=orthogonalEdgeStyle;curved=1;rounded=0;orthogonalLoop=1;jettySize=auto;html=1;" edge="1" parent="vPlLT5pN4zHW__-pL-Tc-1" source="59" target="56">
                    <mxGeometry relative="1" as="geometry"/>
                </mxCell>
                <mxCell id="59" value="ExportServiceInterface" style="rhombus;whiteSpace=wrap;html=1;rounded=1;" vertex="1" parent="vPlLT5pN4zHW__-pL-Tc-1">
                    <mxGeometry x="930" y="567.5" width="205" height="70" as="geometry"/>
                </mxCell>
                <mxCell id="62" style="edgeStyle=orthogonalEdgeStyle;curved=1;rounded=0;orthogonalLoop=1;jettySize=auto;html=1;entryX=0.5;entryY=1;entryDx=0;entryDy=0;" edge="1" parent="vPlLT5pN4zHW__-pL-Tc-1" source="61" target="YykdEIOsx3QJ6HFGw7_Z-8">
                    <mxGeometry relative="1" as="geometry"/>
                </mxCell>
                <mxCell id="63" style="edgeStyle=orthogonalEdgeStyle;curved=1;rounded=0;orthogonalLoop=1;jettySize=auto;html=1;" edge="1" parent="vPlLT5pN4zHW__-pL-Tc-1" source="61" target="YykdEIOsx3QJ6HFGw7_Z-21">
                    <mxGeometry relative="1" as="geometry"/>
                </mxCell>
                <mxCell id="64" style="edgeStyle=orthogonalEdgeStyle;curved=1;rounded=0;orthogonalLoop=1;jettySize=auto;html=1;entryX=0.5;entryY=1;entryDx=0;entryDy=0;" edge="1" parent="vPlLT5pN4zHW__-pL-Tc-1" source="61" target="HGS7NVP4ZbxqK-kCru6S-7">
                    <mxGeometry relative="1" as="geometry"/>
                </mxCell>
                <mxCell id="65" style="edgeStyle=orthogonalEdgeStyle;curved=1;rounded=0;orthogonalLoop=1;jettySize=auto;html=1;" edge="1" parent="vPlLT5pN4zHW__-pL-Tc-1" source="61" target="58">
                    <mxGeometry relative="1" as="geometry"/>
                </mxCell>
                <mxCell id="61" value="index.php" style="whiteSpace=wrap;html=1;rounded=1;" vertex="1" parent="vPlLT5pN4zHW__-pL-Tc-1">
                    <mxGeometry x="435" y="920" width="150" height="60" as="geometry"/>
                </mxCell>
            </root>
        </mxGraphModel>
    </diagram>
    <diagram id="tAm-Q1vrKD3kaD52ELMw" name="ERD">
        <mxGraphModel dx="1302" dy="1928" grid="1" gridSize="10" guides="1" tooltips="1" connect="1" arrows="1" fold="1" page="1" pageScale="1" pageWidth="850" pageHeight="1100" math="0" shadow="0">
            <root>
                <mxCell id="zu2tDFOteG_yooguGcxT-0"/>
                <mxCell id="zu2tDFOteG_yooguGcxT-1" parent="zu2tDFOteG_yooguGcxT-0"/>
                <mxCell id="zu2tDFOteG_yooguGcxT-224" style="edgeStyle=orthogonalEdgeStyle;orthogonalLoop=1;jettySize=auto;html=1;entryX=1;entryY=0.5;entryDx=0;entryDy=0;curved=1;" parent="zu2tDFOteG_yooguGcxT-1" edge="1">
                    <mxGeometry relative="1" as="geometry">
                        <mxPoint x="1100" y="-211" as="targetPoint"/>
                    </mxGeometry>
                </mxCell>
                <mxCell id="zu2tDFOteG_yooguGcxT-387" style="edgeStyle=orthogonalEdgeStyle;orthogonalLoop=1;jettySize=auto;html=1;exitX=1;exitY=0.5;exitDx=0;exitDy=0;fillColor=#f5f5f5;strokeColor=#666666;curved=1;" parent="zu2tDFOteG_yooguGcxT-1" edge="1">
                    <mxGeometry relative="1" as="geometry">
                        <mxPoint x="1008.9999999999995" y="-202" as="targetPoint"/>
                    </mxGeometry>
                </mxCell>
                <mxCell id="zu2tDFOteG_yooguGcxT-388" style="edgeStyle=orthogonalEdgeStyle;orthogonalLoop=1;jettySize=auto;html=1;fillColor=#f5f5f5;strokeColor=#666666;curved=1;" parent="zu2tDFOteG_yooguGcxT-1" edge="1">
                    <mxGeometry relative="1" as="geometry">
                        <mxPoint x="1008.9999999999995" y="-228" as="targetPoint"/>
                    </mxGeometry>
                </mxCell>
                <mxCell id="zu2tDFOteG_yooguGcxT-389" style="edgeStyle=orthogonalEdgeStyle;orthogonalLoop=1;jettySize=auto;html=1;fillColor=#f5f5f5;strokeColor=#666666;curved=1;" parent="zu2tDFOteG_yooguGcxT-1" edge="1">
                    <mxGeometry relative="1" as="geometry">
                        <mxPoint x="1008.9999999999995" y="-322" as="targetPoint"/>
                    </mxGeometry>
                </mxCell>
                <mxCell id="304" value="customers" style="swimlane;fontStyle=0;childLayout=stackLayout;horizontal=1;startSize=26;fillColor=#f5f5f5;horizontalStack=0;resizeParent=1;resizeParentMax=0;resizeLast=0;collapsible=1;marginBottom=0;swimlaneFillColor=#ffffff;align=center;fontSize=14;fontColor=#333333;strokeColor=#666666;rounded=1;" parent="zu2tDFOteG_yooguGcxT-1" vertex="1">
                    <mxGeometry x="880" y="-857" width="162" height="108" as="geometry"/>
                </mxCell>
                <mxCell id="305" value="id" style="shape=partialRectangle;top=0;left=0;right=0;bottom=1;align=left;verticalAlign=middle;fillColor=#f5f5f5;spacingLeft=34;spacingRight=4;overflow=hidden;rotatable=0;points=[[0,0.5],[1,0.5]];portConstraint=eastwest;dropTarget=0;fontStyle=5;fontSize=12;fontColor=#333333;strokeColor=#666666;rounded=1;" parent="304" vertex="1">
                    <mxGeometry y="26" width="162" height="30" as="geometry"/>
                </mxCell>
                <mxCell id="306" value="PK" style="shape=partialRectangle;top=0;left=0;bottom=0;fillColor=#f5f5f5;align=left;verticalAlign=middle;spacingLeft=4;spacingRight=4;overflow=hidden;rotatable=0;points=[];portConstraint=eastwest;part=1;fontSize=12;fontColor=#333333;strokeColor=#666666;rounded=1;" parent="305" connectable="0" vertex="1">
                    <mxGeometry width="30" height="30" as="geometry"/>
                </mxCell>
                <mxCell id="307" value="name" style="shape=partialRectangle;top=0;left=0;right=0;bottom=0;align=left;verticalAlign=top;fillColor=#f5f5f5;spacingLeft=34;spacingRight=4;overflow=hidden;rotatable=0;points=[[0,0.5],[1,0.5]];portConstraint=eastwest;dropTarget=0;fontSize=12;fontColor=#333333;strokeColor=#666666;rounded=1;" parent="304" vertex="1">
                    <mxGeometry y="56" width="162" height="26" as="geometry"/>
                </mxCell>
                <mxCell id="308" value="" style="shape=partialRectangle;top=0;left=0;bottom=0;fillColor=#f5f5f5;align=left;verticalAlign=top;spacingLeft=4;spacingRight=4;overflow=hidden;rotatable=0;points=[];portConstraint=eastwest;part=1;fontSize=12;fontColor=#333333;strokeColor=#666666;rounded=1;" parent="307" connectable="0" vertex="1">
                    <mxGeometry width="30" height="26" as="geometry"/>
                </mxCell>
                <mxCell id="309" value="address" style="shape=partialRectangle;top=0;left=0;right=0;bottom=0;align=left;verticalAlign=top;fillColor=#f5f5f5;spacingLeft=34;spacingRight=4;overflow=hidden;rotatable=0;points=[[0,0.5],[1,0.5]];portConstraint=eastwest;dropTarget=0;fontSize=12;fontColor=#333333;strokeColor=#666666;rounded=1;" parent="304" vertex="1">
                    <mxGeometry y="82" width="162" height="26" as="geometry"/>
                </mxCell>
                <mxCell id="310" value="" style="shape=partialRectangle;top=0;left=0;bottom=0;fillColor=#f5f5f5;align=left;verticalAlign=top;spacingLeft=4;spacingRight=4;overflow=hidden;rotatable=0;points=[];portConstraint=eastwest;part=1;fontSize=12;fontColor=#333333;strokeColor=#666666;rounded=1;" parent="309" connectable="0" vertex="1">
                    <mxGeometry width="30" height="26" as="geometry"/>
                </mxCell>
                <mxCell id="319" value="invocies" style="swimlane;fontStyle=0;childLayout=stackLayout;horizontal=1;startSize=26;fillColor=#f5f5f5;horizontalStack=0;resizeParent=1;resizeParentMax=0;resizeLast=0;collapsible=1;marginBottom=0;swimlaneFillColor=#ffffff;align=center;fontSize=14;fontColor=#333333;strokeColor=#666666;rounded=1;" parent="zu2tDFOteG_yooguGcxT-1" vertex="1">
                    <mxGeometry x="1140" y="-860" width="162" height="134" as="geometry"/>
                </mxCell>
                <mxCell id="320" value="id" style="shape=partialRectangle;top=0;left=0;right=0;bottom=1;align=left;verticalAlign=middle;fillColor=#f5f5f5;spacingLeft=34;spacingRight=4;overflow=hidden;rotatable=0;points=[[0,0.5],[1,0.5]];portConstraint=eastwest;dropTarget=0;fontStyle=5;fontSize=12;fontColor=#333333;strokeColor=#666666;rounded=1;" parent="319" vertex="1">
                    <mxGeometry y="26" width="162" height="30" as="geometry"/>
                </mxCell>
                <mxCell id="321" value="PK" style="shape=partialRectangle;top=0;left=0;bottom=0;fillColor=#f5f5f5;align=left;verticalAlign=middle;spacingLeft=4;spacingRight=4;overflow=hidden;rotatable=0;points=[];portConstraint=eastwest;part=1;fontSize=12;fontColor=#333333;strokeColor=#666666;rounded=1;" parent="320" connectable="0" vertex="1">
                    <mxGeometry width="30" height="30" as="geometry"/>
                </mxCell>
                <mxCell id="322" value="name" style="shape=partialRectangle;top=0;left=0;right=0;bottom=0;align=left;verticalAlign=top;fillColor=#f5f5f5;spacingLeft=34;spacingRight=4;overflow=hidden;rotatable=0;points=[[0,0.5],[1,0.5]];portConstraint=eastwest;dropTarget=0;fontSize=12;fontColor=#333333;strokeColor=#666666;rounded=1;" parent="319" vertex="1">
                    <mxGeometry y="56" width="162" height="26" as="geometry"/>
                </mxCell>
                <mxCell id="323" value="" style="shape=partialRectangle;top=0;left=0;bottom=0;fillColor=#f5f5f5;align=left;verticalAlign=top;spacingLeft=4;spacingRight=4;overflow=hidden;rotatable=0;points=[];portConstraint=eastwest;part=1;fontSize=12;fontColor=#333333;strokeColor=#666666;rounded=1;" parent="322" connectable="0" vertex="1">
                    <mxGeometry width="30" height="26" as="geometry"/>
                </mxCell>
                <mxCell id="324" value="date" style="shape=partialRectangle;top=0;left=0;right=0;bottom=0;align=left;verticalAlign=top;fillColor=#f5f5f5;spacingLeft=34;spacingRight=4;overflow=hidden;rotatable=0;points=[[0,0.5],[1,0.5]];portConstraint=eastwest;dropTarget=0;fontSize=12;fontColor=#333333;strokeColor=#666666;rounded=1;" parent="319" vertex="1">
                    <mxGeometry y="82" width="162" height="26" as="geometry"/>
                </mxCell>
                <mxCell id="325" value="" style="shape=partialRectangle;top=0;left=0;bottom=0;fillColor=#f5f5f5;align=left;verticalAlign=top;spacingLeft=4;spacingRight=4;overflow=hidden;rotatable=0;points=[];portConstraint=eastwest;part=1;fontSize=12;fontColor=#333333;strokeColor=#666666;rounded=1;" parent="324" connectable="0" vertex="1">
                    <mxGeometry width="30" height="26" as="geometry"/>
                </mxCell>
                <mxCell id="326" value="customer_id" style="shape=partialRectangle;top=0;left=0;right=0;bottom=0;align=left;verticalAlign=top;fillColor=#f5f5f5;spacingLeft=34;spacingRight=4;overflow=hidden;rotatable=0;points=[[0,0.5],[1,0.5]];portConstraint=eastwest;dropTarget=0;fontSize=12;fontColor=#333333;strokeColor=#666666;rounded=1;" parent="319" vertex="1">
                    <mxGeometry y="108" width="162" height="26" as="geometry"/>
                </mxCell>
                <mxCell id="327" value="FK" style="shape=partialRectangle;top=0;left=0;bottom=0;fillColor=#f5f5f5;align=left;verticalAlign=top;spacingLeft=4;spacingRight=4;overflow=hidden;rotatable=0;points=[];portConstraint=eastwest;part=1;fontSize=12;fontColor=#333333;strokeColor=#666666;rounded=1;" parent="326" connectable="0" vertex="1">
                    <mxGeometry width="30" height="26" as="geometry"/>
                </mxCell>
                <mxCell id="328" value="products_invocies" style="swimlane;fontStyle=0;childLayout=stackLayout;horizontal=1;startSize=26;fillColor=#f5f5f5;horizontalStack=0;resizeParent=1;resizeParentMax=0;resizeLast=0;collapsible=1;marginBottom=0;swimlaneFillColor=#ffffff;align=center;fontSize=14;fontColor=#333333;strokeColor=#666666;rounded=1;" parent="zu2tDFOteG_yooguGcxT-1" vertex="1">
                    <mxGeometry x="1140" y="-980" width="162" height="108" as="geometry"/>
                </mxCell>
                <mxCell id="329" value="id" style="shape=partialRectangle;top=0;left=0;right=0;bottom=1;align=left;verticalAlign=middle;fillColor=#f5f5f5;spacingLeft=34;spacingRight=4;overflow=hidden;rotatable=0;points=[[0,0.5],[1,0.5]];portConstraint=eastwest;dropTarget=0;fontStyle=5;fontSize=12;fontColor=#333333;strokeColor=#666666;rounded=1;" parent="328" vertex="1">
                    <mxGeometry y="26" width="162" height="30" as="geometry"/>
                </mxCell>
                <mxCell id="330" value="PK" style="shape=partialRectangle;top=0;left=0;bottom=0;fillColor=#f5f5f5;align=left;verticalAlign=middle;spacingLeft=4;spacingRight=4;overflow=hidden;rotatable=0;points=[];portConstraint=eastwest;part=1;fontSize=12;fontColor=#333333;strokeColor=#666666;rounded=1;" parent="329" connectable="0" vertex="1">
                    <mxGeometry width="30" height="30" as="geometry"/>
                </mxCell>
                <mxCell id="335" value="product_id" style="shape=partialRectangle;top=0;left=0;right=0;bottom=0;align=left;verticalAlign=top;fillColor=#f5f5f5;spacingLeft=34;spacingRight=4;overflow=hidden;rotatable=0;points=[[0,0.5],[1,0.5]];portConstraint=eastwest;dropTarget=0;fontSize=12;fontColor=#333333;strokeColor=#666666;rounded=1;" parent="328" vertex="1">
                    <mxGeometry y="56" width="162" height="26" as="geometry"/>
                </mxCell>
                <mxCell id="336" value="FK" style="shape=partialRectangle;top=0;left=0;bottom=0;fillColor=#f5f5f5;align=left;verticalAlign=top;spacingLeft=4;spacingRight=4;overflow=hidden;rotatable=0;points=[];portConstraint=eastwest;part=1;fontSize=12;fontColor=#333333;strokeColor=#666666;rounded=1;" parent="335" connectable="0" vertex="1">
                    <mxGeometry width="30" height="26" as="geometry"/>
                </mxCell>
                <mxCell id="337" value="invocie_id" style="shape=partialRectangle;top=0;left=0;right=0;bottom=0;align=left;verticalAlign=top;fillColor=#f5f5f5;spacingLeft=34;spacingRight=4;overflow=hidden;rotatable=0;points=[[0,0.5],[1,0.5]];portConstraint=eastwest;dropTarget=0;fontSize=12;fontColor=#333333;strokeColor=#666666;rounded=1;" parent="328" vertex="1">
                    <mxGeometry y="82" width="162" height="26" as="geometry"/>
                </mxCell>
                <mxCell id="338" value="FK" style="shape=partialRectangle;top=0;left=0;bottom=0;fillColor=#f5f5f5;align=left;verticalAlign=top;spacingLeft=4;spacingRight=4;overflow=hidden;rotatable=0;points=[];portConstraint=eastwest;part=1;fontSize=12;fontColor=#333333;strokeColor=#666666;rounded=1;" parent="337" connectable="0" vertex="1">
                    <mxGeometry width="30" height="26" as="geometry"/>
                </mxCell>
                <mxCell id="339" style="edgeStyle=orthogonalEdgeStyle;orthogonalLoop=1;jettySize=auto;html=1;curved=1;" parent="zu2tDFOteG_yooguGcxT-1" source="305" target="326" edge="1">
                    <mxGeometry relative="1" as="geometry"/>
                </mxCell>
                <mxCell id="340" value="products" style="swimlane;fontStyle=0;childLayout=stackLayout;horizontal=1;startSize=26;fillColor=#f5f5f5;horizontalStack=0;resizeParent=1;resizeParentMax=0;resizeLast=0;collapsible=1;marginBottom=0;swimlaneFillColor=#ffffff;align=center;fontSize=14;fontColor=#333333;strokeColor=#666666;rounded=1;" parent="zu2tDFOteG_yooguGcxT-1" vertex="1">
                    <mxGeometry x="880" y="-980" width="162" height="108" as="geometry"/>
                </mxCell>
                <mxCell id="341" value="id" style="shape=partialRectangle;top=0;left=0;right=0;bottom=1;align=left;verticalAlign=middle;fillColor=#f5f5f5;spacingLeft=34;spacingRight=4;overflow=hidden;rotatable=0;points=[[0,0.5],[1,0.5]];portConstraint=eastwest;dropTarget=0;fontStyle=5;fontSize=12;fontColor=#333333;strokeColor=#666666;rounded=1;" parent="340" vertex="1">
                    <mxGeometry y="26" width="162" height="30" as="geometry"/>
                </mxCell>
                <mxCell id="342" value="PK" style="shape=partialRectangle;top=0;left=0;bottom=0;fillColor=#f5f5f5;align=left;verticalAlign=middle;spacingLeft=4;spacingRight=4;overflow=hidden;rotatable=0;points=[];portConstraint=eastwest;part=1;fontSize=12;fontColor=#333333;strokeColor=#666666;rounded=1;" parent="341" connectable="0" vertex="1">
                    <mxGeometry width="30" height="30" as="geometry"/>
                </mxCell>
                <mxCell id="343" value="name" style="shape=partialRectangle;top=0;left=0;right=0;bottom=0;align=left;verticalAlign=top;fillColor=#f5f5f5;spacingLeft=34;spacingRight=4;overflow=hidden;rotatable=0;points=[[0,0.5],[1,0.5]];portConstraint=eastwest;dropTarget=0;fontSize=12;fontColor=#333333;strokeColor=#666666;rounded=1;" parent="340" vertex="1">
                    <mxGeometry y="56" width="162" height="26" as="geometry"/>
                </mxCell>
                <mxCell id="344" value="" style="shape=partialRectangle;top=0;left=0;bottom=0;fillColor=#f5f5f5;align=left;verticalAlign=top;spacingLeft=4;spacingRight=4;overflow=hidden;rotatable=0;points=[];portConstraint=eastwest;part=1;fontSize=12;fontColor=#333333;strokeColor=#666666;rounded=1;" parent="343" connectable="0" vertex="1">
                    <mxGeometry width="30" height="26" as="geometry"/>
                </mxCell>
                <mxCell id="345" value="price" style="shape=partialRectangle;top=0;left=0;right=0;bottom=0;align=left;verticalAlign=top;fillColor=#f5f5f5;spacingLeft=34;spacingRight=4;overflow=hidden;rotatable=0;points=[[0,0.5],[1,0.5]];portConstraint=eastwest;dropTarget=0;fontSize=12;fontColor=#333333;strokeColor=#666666;rounded=1;" parent="340" vertex="1">
                    <mxGeometry y="82" width="162" height="26" as="geometry"/>
                </mxCell>
                <mxCell id="346" value="" style="shape=partialRectangle;top=0;left=0;bottom=0;fillColor=#f5f5f5;align=left;verticalAlign=top;spacingLeft=4;spacingRight=4;overflow=hidden;rotatable=0;points=[];portConstraint=eastwest;part=1;fontSize=12;fontColor=#333333;strokeColor=#666666;rounded=1;" parent="345" connectable="0" vertex="1">
                    <mxGeometry width="30" height="26" as="geometry"/>
                </mxCell>
                <mxCell id="348" style="edgeStyle=orthogonalEdgeStyle;curved=1;rounded=0;orthogonalLoop=1;jettySize=auto;html=1;entryX=0;entryY=0.5;entryDx=0;entryDy=0;" parent="zu2tDFOteG_yooguGcxT-1" source="320" target="337" edge="1">
                    <mxGeometry relative="1" as="geometry"/>
                </mxCell>
                <mxCell id="349" style="edgeStyle=orthogonalEdgeStyle;curved=1;rounded=0;orthogonalLoop=1;jettySize=auto;html=1;entryX=0;entryY=0.5;entryDx=0;entryDy=0;" parent="zu2tDFOteG_yooguGcxT-1" source="341" target="335" edge="1">
                    <mxGeometry relative="1" as="geometry"/>
                </mxCell>
            </root>
        </mxGraphModel>
    </diagram>
</mxfile>